<?xml version="1.0" standalone="no"?>
<!DOCTYPE svg PUBLIC "-//W3C//DTD SVG 20010904//EN"
 "http://www.w3.org/TR/2001/REC-SVG-20010904/DTD/svg10.dtd">
<svg version="1.0" xmlns="http://www.w3.org/2000/svg"
 width="139.000000pt" height="36.000000pt" viewBox="0 0 139.000000 36.000000"
 preserveAspectRatio="xMidYMid meet">
<metadata>
Created by potrace 1.13, written by Peter Selinger 2001-2015
</metadata>
<g transform="translate(0.000000,36.000000) scale(0.100000,-0.100000)"
fill="#000000" stroke="none">
<path d="M0 180 l0 -180 695 0 695 0 0 180 0 180 -695 0 -695 0 0 -180z m845
114 c83 -39 95 -148 24 -209 -24 -19 -42 -25 -79 -25 -43 0 -54 5 -85 35 -30
31 -35 42 -35 84 0 56 25 95 74 117 41 18 61 17 101 -2z"/>
</g>
</svg>
